# xmcd
#
# Track frame offsets:
# 150
# 3437
# 20989
# 36113
# 57095
# 73313
# 78828
# 99842
# 122349
# 138091
# 142552
# 159163
# 175915
# 193919
# 199300
# 217067
# 235722
# 253779
# 273263
# 276538
# 290749
#
# Disc length: 4214 seconds
#
#
# Revision: 0
# Processed by: cddbd v1.5.2PL0 Copyright (c) Steve Scherf et al.
# Submitted via: FreeRIP 2.951 
#
DISCID=31107415
DTITLE=Black Moon - War zone Revisited
DYEAR=1900
DGENRE=Hip-Hop
TTITLE0=Intro WarZone Revisited
TTITLE1=The Onslaught(Busta)
TTITLE2=War Zone
TTITLE3=This is what it sounds like(WorldWind)
TTITLE4=freestyle
TTITLE5=Five(Interlude)
TTITLE6=for all yall(HeatherB)
TTITLE7=Come Get Some
TTITLE8=Weight of the World
TTITLE9=evil dee is on the mix
TTITLE10=Showdown(QTip)
TTITLE11=one two
TTITLE12=Frame(cocoa Brovas)
TTITLE13=Buckshot  interlude
TTITLE14=two turntables and a mic
TTITLE15=annihilation(MOP Teflon)
TTITLE16=Duress
TTITLE17=Throw Your Hands in the air
TTITLE18=Outro(Rock)
TTITLE19=ait tight
TTITLE20=on the block that im from
EXTD=
EXTT0=
EXTT1=
EXTT2=
EXTT3=
EXTT4=
EXTT5=
EXTT6=
EXTT7=
EXTT8=
EXTT9=
EXTT10=
EXTT11=
EXTT12=
EXTT13=
EXTT14=
EXTT15=
EXTT16=
EXTT17=
EXTT18=
EXTT19=
EXTT20=
PLAYORDER=
